<?xml version="1.0" standalone="no"?><svg xmlns="http://www.w3.org/2000/svg" viewBox="0 0 1440 320"><path fill="#262d38" fill-opacity="1" d="M0,288L30,256C60,224,120,160,180,149.3C240,139,300,181,360,176C420,171,480,117,540,122.7C600,128,660,192,720,218.7C780,245,840,235,900,208C960,181,1020,139,1080,149.3C1140,160,1200,224,1260,245.3C1320,267,1380,245,1410,234.7L1440,224L1440,320L1410,320C1380,320,1320,320,1260,320C1200,320,1140,320,1080,320C1020,320,960,320,900,320C840,320,780,320,720,320C660,320,600,320,540,320C480,320,420,320,360,320C300,320,240,320,180,320C120,320,60,320,30,320L0,320Z"></path></svg>