<?xml version="1.0" standalone="no"?><svg xmlns="http://www.w3.org/2000/svg" viewBox="0 0 1440 320"><path fill="#a2d9ff" fill-opacity="1" d="M0,0L30,37.3C60,75,120,149,180,165.3C240,181,300,139,360,128C420,117,480,139,540,170.7C600,203,660,245,720,266.7C780,288,840,288,900,288C960,288,1020,288,1080,293.3C1140,299,1200,309,1260,298.7C1320,288,1380,256,1410,240L1440,224L1440,320L1410,320C1380,320,1320,320,1260,320C1200,320,1140,320,1080,320C1020,320,960,320,900,320C840,320,780,320,720,320C660,320,600,320,540,320C480,320,420,320,360,320C300,320,240,320,180,320C120,320,60,320,30,320L0,320Z"></path></svg>