<?xml version="1.0" standalone="no"?><svg xmlns="http://www.w3.org/2000/svg" viewBox="0 0 1440 320"><path fill="#0f4c5e" fill-opacity="1" d="M0,256L30,261.3C60,267,120,277,180,261.3C240,245,300,203,360,181.3C420,160,480,160,540,170.7C600,181,660,203,720,213.3C780,224,840,224,900,197.3C960,171,1020,117,1080,90.7C1140,64,1200,64,1260,64C1320,64,1380,64,1410,64L1440,64L1440,320L1410,320C1380,320,1320,320,1260,320C1200,320,1140,320,1080,320C1020,320,960,320,900,320C840,320,780,320,720,320C660,320,600,320,540,320C480,320,420,320,360,320C300,320,240,320,180,320C120,320,60,320,30,320L0,320Z"></path></svg>